<svg width="344" height="361" viewBox="0 0 344 361" fill="none" xmlns="http://www.w3.org/2000/svg">
<path opacity="0.44" d="M230.616 357.551C307.431 340.622 356.405 266.139 340.002 191.188C323.599 116.238 248.031 69.2023 171.215 86.1313C94.3993 103.06 45.4252 177.543 61.8282 252.494C78.2312 327.444 153.8 374.48 230.616 357.551Z" fill="#1D1E1C"/>
<path d="M154.193 312.014C239.352 312.014 308.386 242.167 308.386 156.007C308.386 69.8468 239.352 0 154.193 0C69.0346 0 0 69.8468 0 156.007C0 242.167 69.0346 312.014 154.193 312.014Z" fill="white"/>
<path d="M154.182 312.014C141.734 312.014 129.633 310.52 118.054 307.684C117.902 307.706 117.706 307.684 117.532 307.64C98.588 302.914 80.8821 294.714 64.936 283.284C64.7839 283.174 64.6318 283.02 64.5232 282.844C25.5051 254.531 0.04345 208.259 0 156.117C0 156.117 0 156.117 0 156.095C0 156.073 0 156.073 0 156.051C0 156.029 0 156.007 0 156.007C0 155.985 0 155.963 0 155.941V155.919C0 155.897 0 155.875 0 155.853C0.021725 132.222 5.25745 109.801 14.6209 89.731C16.2503 86.2139 18.01 82.7407 19.9001 79.3555C19.9653 79.2456 20.0304 79.1356 20.1173 79.0477C32.7396 56.6479 50.6627 37.6993 72.1704 23.9825C96.6762 8.26528 124.723 0.0219821 154.052 0H154.074C154.095 0 154.095 0 154.139 0C154.812 0.0439642 155.421 0 156.029 0.0219821C181.643 0.329732 205.779 6.96833 226.961 18.5089C257.18 34.8417 281.425 61.2642 295.286 92.9844C295.351 93.1163 295.395 93.2702 295.416 93.4021C303.759 112.57 308.386 133.761 308.386 156.007C308.386 171.724 306.083 186.914 301.782 201.246C301.804 201.664 301.673 202.06 301.434 202.367C292.331 231.889 274.778 257.674 251.662 276.821C251.467 277.305 251.011 277.7 250.467 277.788C224.05 299.177 190.572 312.014 154.182 312.014ZM120.574 304.914C131.393 307.42 142.625 308.717 154.182 308.717C189.811 308.717 222.616 296.165 248.469 275.172L247.947 266.665L203.433 253.762L138.91 276.469L120.574 304.914ZM66.9564 280.58C81.9249 291.351 98.9356 299.419 117.25 304.101L135.759 275.392L95.0685 237.605C82.4463 240.66 67.0868 240.726 48.186 237.825C52.2051 251.673 58.375 265.676 66.9564 280.58ZM5.84402 184.298C12.6874 221.074 32.6092 253.256 60.5041 275.678C53.2262 262.159 47.9471 249.255 44.4276 236.484L14.9033 188.123L5.84402 184.298ZM97.2628 235.209L138.258 273.26L202.238 250.75C211.645 230.702 218.293 209.951 222.029 189.002L179.926 149.347L166.218 153.787C146.709 160.096 127.243 166.405 107.691 172.604L97.2628 235.209ZM251.141 266.006L251.532 272.622C272.692 254.509 288.855 230.636 297.654 203.401L293.048 204.148C283.815 224.24 270.845 243.386 251.141 266.006ZM205.67 251.014L248.947 263.566C268.412 241.188 281.187 222.261 290.289 202.389C288.573 188.497 284.749 174.934 278.949 162.03C260.461 173.263 242.994 181.353 225.657 186.76C222.073 208.544 215.338 230.153 205.67 251.014ZM46.9043 234.307C66.0874 237.407 81.5339 237.473 94.0909 234.461L104.562 171.614C94.6775 153.281 81.9467 135.19 66.6957 117.824L31.4578 124.924C24.9837 143.104 20.4649 163.239 17.6624 186.43L46.9043 234.307ZM281.295 159.326C287.422 172.56 291.484 186.496 293.374 200.763L298.762 199.905C302.89 185.991 305.106 171.263 305.106 156.007C305.106 134.948 300.869 114.879 293.222 96.6334L282.686 108.064L281.295 159.326ZM182.012 146.819L222.659 185.133C222.79 184.562 223.203 184.1 223.767 183.924C241.408 178.517 259.179 170.274 278.08 158.733L279.449 108.152C270.411 100.92 261.352 93.6878 252.292 86.4557C243.081 79.0917 233.869 71.7497 224.68 64.3856L181.816 78.0146C184.293 102.7 183.25 127.628 182.012 146.819ZM5.25745 180.517L14.6426 184.452C17.5103 161.503 22.0726 141.499 28.5466 123.386L20.6387 84.873C19.5742 86.9173 18.5531 88.9617 17.5755 91.05C8.19032 111.361 3.25875 133.519 3.23702 155.853C3.23702 155.875 3.23702 155.897 3.23702 155.919V155.941C3.23702 155.963 3.23702 155.985 3.23702 156.007C3.23702 156.029 3.23702 156.051 3.23702 156.051C3.23702 156.073 3.23702 156.073 3.23702 156.095C3.23702 156.095 3.23702 156.095 3.23702 156.117C3.23702 164.25 3.93222 172.45 5.25745 180.517ZM69.2593 115.824C84.4233 133.102 97.1107 151.105 107.039 169.372C126.461 163.195 145.818 156.93 165.219 150.643L178.775 146.247C180.013 127.101 181.034 102.349 178.536 77.8827C159.809 68.2325 137.715 61.3081 110.993 56.7139C94.873 75.2448 81.208 94.5891 69.2593 115.824ZM23.0285 80.4546L31.5012 121.583L66.2395 114.571C78.3838 92.9184 92.3095 73.2225 108.755 54.3838L107.691 27.5436C93.2871 27.8294 77.9493 30.3793 62.0466 35.1055C46.2742 47.4374 32.9568 62.8689 23.0285 80.4546ZM226.44 61.6159C235.716 69.0459 245.014 76.4538 254.313 83.8838C263.198 90.984 272.084 98.0623 280.948 105.162L291.853 93.3581C278.167 62.671 254.725 37.3696 225.571 21.4546C225.418 21.3886 225.288 21.3007 225.136 21.2128L215.382 20.9929C219.01 34.5559 222.659 48.0749 226.44 61.6159ZM111.971 53.5704C138.931 58.2307 161.265 65.2869 180.23 75.0909L223.029 61.484C219.162 47.5693 215.403 33.6766 211.667 19.7619C211.536 19.2563 211.645 18.7288 211.949 18.3111C212.253 17.9154 212.731 17.6297 213.252 17.6736L218.38 17.7835C200.196 9.1006 180.013 3.97876 158.744 3.3193C158.744 3.3193 158.744 3.3193 158.723 3.3193C141.451 8.15537 125.353 16.003 110.884 26.6863L111.971 53.5704ZM74.6688 26.2247C72.9091 27.3238 71.1711 28.4669 69.4548 29.6539C83.0546 26.2027 96.22 24.4002 108.69 24.2243C120.661 15.3435 133.739 8.35321 147.686 3.38525C120.986 4.57228 96.0462 12.7716 74.6688 26.2247Z" fill="#D8D8D7"/>
</svg>
