<svg width="160" height="160" viewBox="0 0 160 160" fill="none" xmlns="http://www.w3.org/2000/svg">
<mask id="mask0" mask-type="alpha" maskUnits="userSpaceOnUse" x="0" y="0" width="160" height="160">
<circle cx="80" cy="80" r="80" fill="#C4C4C4"/>
</mask>
<g mask="url(#mask0)">
<rect width="69.3333" height="160" fill="#204D91"/>
<rect x="90.667" width="69.3333" height="160" fill="#951D43"/>
<rect width="6" height="40" transform="matrix(-4 0 0 4 92 0)" fill="#E4BC40"/>
<path fill-rule="evenodd" clip-rule="evenodd" d="M80 156C121.974 156 156 121.974 156 80C156 38.0264 121.974 4 80 4C38.0264 4 4 38.0264 4 80C4 121.974 38.0264 156 80 156ZM80 160C124.183 160 160 124.183 160 80C160 35.8172 124.183 0 80 0C35.8172 0 0 35.8172 0 80C0 124.183 35.8172 160 80 160Z" fill="#DDDDDD"/>
</g>
</svg>
