<svg width="250" height="80" viewBox="0 0 250 80" fill="none" xmlns="http://www.w3.org/2000/svg">
<path d="M0 0V80H15.4029V14.5986H234.602V80H249.998V0H0Z" fill="white"/>
<path d="M122.438 43.8027H115.242C112.373 43.8027 110.039 46.1363 110.039 49.0061V74.7791C110.039 77.7951 112.226 79.9825 115.242 79.9825H122.438C125.308 79.9825 127.641 77.6489 127.641 74.7791V67.9733H122.073V73.7189C122.073 74.3526 121.561 74.8644 120.933 74.8644H116.936C116.303 74.8644 115.791 74.3526 115.791 73.7189V49.9505C115.791 49.3229 116.303 48.805 116.936 48.805H120.933C121.561 48.805 122.073 49.3168 122.073 49.9505V56.086H127.641V49C127.641 46.1363 125.308 43.8027 122.438 43.8027Z" fill="white"/>
<path d="M146.151 51.0039H129.828V56.0915H135.202V79.994H140.771V56.0915H146.151V51.0039Z" fill="white"/>
<path d="M56.201 67.2903H55.6588L55.6527 51.0039H50.0898V79.994H54.9886L61.0936 64.4571H61.6359V79.994H67.2048V51.0039H62.2391L56.201 67.2903Z" fill="white"/>
<path d="M32.1708 43.7969L25.3711 79.9888H31.2629L35.9179 49.6887H36.4663L41.3284 79.9888H47.2386L40.4937 43.7969H32.1708Z" fill="white"/>
<path d="M151.756 50.998L145.688 79.9943H151.287L151.981 76.2837H159.433L160.122 79.9943H165.739L159.707 50.998H151.756ZM152.877 71.4763L155.461 56.0917H155.985L158.537 71.4763H152.877Z" fill="white"/>
<path d="M88.5099 50.998L82.4414 79.9943H88.0408L88.7293 76.2837H96.1809L96.8633 79.9943H102.481L96.449 50.998H88.5099ZM89.631 71.4763L92.2205 56.0917H92.7445L95.2975 71.4763H89.631Z" fill="white"/>
<path d="M83.9856 51.0039H71.3672V79.994H76.9361V56.0915H83.9856V51.0039Z" fill="white"/>
<path d="M199.568 50.998H193.414C190.545 50.998 188.211 53.3316 188.211 56.2014V74.7848C188.211 77.6545 190.545 79.9882 193.414 79.9882H199.568C202.438 79.9882 204.771 77.6545 204.771 74.7848V56.2014C204.771 53.3377 202.438 50.998 199.568 50.998ZM199.203 73.7368C199.203 74.3644 198.691 74.8823 198.063 74.8823H194.919C194.292 74.8823 193.78 74.3705 193.78 73.7368V57.2615C193.78 56.6279 194.292 56.1161 194.919 56.1161H198.063C198.691 56.1161 199.203 56.6401 199.203 57.2798V73.7368Z" fill="white"/>
<path d="M226.457 51.0039H220.455L215.423 63.3055H214.46V51.0039H208.934V80.0001H214.46V68.1189H215.642L220.754 80.0001H226.768L220.315 65.4563L226.457 51.0039Z" fill="white"/>
<path d="M180.819 65.828V65.2857H180.813C182.964 64.8409 184.584 62.9216 184.584 60.6307V56.189C184.584 53.3314 182.251 51.0039 179.381 51.0039H168.578V79.994H179.643C182.513 79.994 184.846 77.6604 184.846 74.7906V70.6901C184.852 68.2834 183.116 66.2667 180.819 65.828ZM174.153 56.1037H177.882C178.516 56.1037 179.027 56.6155 179.027 57.2491V62.1783C179.027 62.8059 178.516 63.3238 177.882 63.3238H174.153V56.1037ZM179.283 73.7366C179.283 74.3641 178.772 74.8821 178.144 74.8821H174.153V68.1311H178.144C178.772 68.1311 179.283 68.6429 179.283 69.2766V73.7366Z" fill="white"/>
</svg>
