<svg width="445" height="400" viewBox="0 0 445 400" fill="none" xmlns="http://www.w3.org/2000/svg">
<g clip-path="url(#clip0)">
<path opacity="0.33" d="M238.659 393.498C350.78 368.875 426.909 281.696 408.699 198.779C390.489 115.862 284.835 68.606 172.715 93.2296C60.5947 117.853 -15.5348 205.032 2.67521 287.949C20.8852 370.866 126.539 418.122 238.659 393.498Z" fill="#1D1E1C"/>
<path d="M260.785 367.855C362.232 367.855 444.471 285.508 444.471 183.927C444.471 82.3471 362.232 0 260.785 0C159.339 0 77.0996 82.3471 77.0996 183.927C77.0996 285.508 159.339 367.855 260.785 367.855Z" fill="#E1592D"/>
<path d="M256.435 368.337C250.392 368.096 244.35 367.854 238.308 367.129C273.595 360.362 300.181 345.135 319.274 320.241C331.842 303.806 340.785 286.162 350.211 267.552L350.453 267.069C354.078 260.06 357.945 252.084 362.296 244.35C375.105 220.905 391.299 194.561 414.018 176.676C414.018 176.676 414.501 176.434 414.501 176.192L414.743 175.951L414.984 174.984V174.742C410.876 162.416 405.8 150.573 399.999 139.455L399.516 139.214L398.308 138.972L397.824 139.214C339.335 190.694 241.691 258.368 107.794 286.887C106.586 285.195 105.619 283.504 104.652 281.812C239.274 253.534 337.16 185.618 395.649 133.655L395.891 133.413L396.132 132.446V131.963C389.848 120.845 382.839 110.211 375.105 100.301L374.864 100.06L373.897 99.8178H373.413C363.987 105.86 351.903 110.452 340.302 112.144C323.867 114.561 307.915 116.736 291.722 116.736C290.755 116.736 289.546 116.736 288.58 116.736C269.728 116.495 250.634 114.319 232.265 112.386L225.256 111.661C215.83 110.694 206.646 110.211 197.945 110.211C123.987 110.211 90.8756 144.047 78.791 160.482C79.2744 156.857 79.9995 153.232 80.7246 149.365C115.528 110.452 169.184 104.652 197.945 104.652C206.888 104.652 216.314 105.135 225.74 106.102L232.749 106.827C251.117 108.76 269.969 110.694 288.58 110.936C289.546 110.936 290.513 110.936 291.722 110.936C307.432 110.936 323.141 108.76 339.335 106.343C349.728 104.893 360.845 100.785 369.546 95.4674L369.788 94.984L370.03 93.7755L369.788 93.2921C323.383 38.1864 261.51 14.0172 226.948 4.34955C231.299 3.62447 235.649 2.8994 239.758 2.41602C267.794 11.6003 308.882 29.2438 346.102 62.1139C356.012 70.8148 365.438 80.4825 373.897 90.6335L374.38 90.8752H375.589L376.072 90.6335C380.664 86.7665 384.048 82.416 385.981 77.8239C390.09 68.6396 388.398 58.4885 385.981 50.5127C388.398 52.9296 391.057 55.3465 393.474 57.7634C394.924 66.2227 394.199 73.7151 391.299 80.2408C388.882 85.558 385.015 90.6335 379.697 95.2257L379.456 95.7091V96.9175L379.697 97.4009C387.432 107.069 394.199 117.461 400.241 127.854L400.725 128.096L401.933 128.337L402.416 128.096C410.876 120.362 418.851 112.627 426.344 104.893C427.311 106.585 428.036 108.519 428.761 110.211C421.027 117.945 413.051 125.921 404.592 133.413L404.35 133.655L404.108 134.621V135.105C409.909 146.223 415.226 158.307 419.577 170.875L419.818 171.117L421.027 171.6H421.51C429.002 167.008 436.253 164.591 443.262 164.108C443.504 165.8 443.746 167.733 443.746 169.667C436.978 169.908 430.211 172.567 422.719 177.401L422.477 177.643L422.235 178.609V179.093C428.519 198.911 432.87 220.422 435.045 242.899C433.595 247.008 432.145 251.117 430.453 255.226C428.761 229.848 424.41 205.679 417.885 183.443L417.401 182.96L416.193 182.476H415.709C394.441 199.878 379.214 224.772 367.129 246.766C363.021 254.259 358.912 262.235 355.528 269.244L355.286 269.727C346.102 287.854 336.676 306.464 323.625 323.383C307.19 344.893 284.712 359.878 256.435 368.337Z" fill="#A33214"/>
</g>
<defs>
<clipPath id="clip0">
<rect width="444.471" height="400" fill="white"/>
</clipPath>
</defs>
</svg>
