<svg width="175" height="170" viewBox="0 0 175 170" fill="none" xmlns="http://www.w3.org/2000/svg">
<path d="M172.225 95.133C170.378 95.133 171.763 95.133 170.378 95.133C167.146 82.1931 163.913 70.6395 160.22 59.5481C162.528 59.5481 162.067 59.5481 164.837 59.5481C162.99 54.4645 161.143 47.5324 155.602 40.1381C157.911 35.0546 160.22 29.971 160.681 23.9632H158.373C158.834 19.3417 157.449 15.1825 155.602 11.9475C155.602 11.9475 155.602 11.4853 155.141 11.4853C150.062 3.62892 137.595 -1.91679 130.207 3.16678C126.052 5.93963 121.435 9.17462 117.279 11.9475C112.2 10.0989 106.659 9.17462 101.118 9.17462C93.7308 8.71248 86.3432 8.71248 78.4938 8.71248C72.953 8.71248 67.4123 9.63676 62.3333 11.0232C58.1777 7.7882 54.0222 5.01534 49.8666 2.24249C41.5555 -3.30321 28.1654 2.24249 23.0864 10.0989C19.8543 15.1825 18.4691 23.0389 23.0864 33.6681C23.5481 35.0546 24.4716 36.9031 24.9333 38.2896C20.316 44.2974 17.5457 50.3053 15.237 57.6995H19.8543C18.0074 63.7074 16.1605 69.2531 14.3136 75.2609H9.69629C6.92592 84.5038 4.15555 94.2087 1.38518 105.3L0 110.384L4.15555 114.081C16.1605 124.71 27.242 133.953 38.7852 142.271H54.0222C39.2469 131.642 25.395 120.551 10.158 107.149C15.6988 85.8902 20.7778 68.3288 27.242 49.8431C29.0889 45.2217 30.9358 41.0624 33.7062 37.3653C31.3975 32.2817 24.4716 19.8039 30.9358 9.17462C33.7062 4.5532 40.6321 3.16678 45.7111 6.40177C50.7901 10.0989 55.4074 13.3339 60.4864 17.031C66.0271 15.1825 71.5679 14.2582 78.0321 13.796C85.4197 13.796 93.2691 13.796 100.657 14.2582C106.659 14.2582 112.662 15.6446 117.741 17.4932C122.82 13.796 127.899 10.561 132.978 7.32605C138.057 4.09106 144.983 5.47749 147.753 10.561C154.217 21.1903 146.83 33.6681 144.059 38.7517C146.368 42.4488 148.676 46.6081 150.062 51.2295C156.526 69.7152 161.143 87.7388 166.222 108.997C139.442 131.18 118.202 146.431 87.2666 164.916C90.037 166.765 92.8074 168.614 95.5777 170C115.432 157.984 131.131 147.355 148.215 134.415H140.827C142.674 133.029 144.521 131.642 146.368 130.256H153.294C162.528 122.862 169.916 116.854 174.995 112.232C174.995 106.687 173.61 101.603 172.225 95.133Z" fill="white"/>
<path d="M44.7891 146.891C55.4088 154.747 66.4903 162.141 78.9569 169.998C81.7273 168.149 84.4977 166.763 87.7298 164.914C77.5718 158.444 68.7989 152.898 60.4878 146.891H44.7891Z" fill="white"/>
<path d="M71.5678 59.5448L60.9481 55.8477H60.4863C60.4863 55.8477 60.4863 55.8477 60.4863 56.3098L62.795 66.9391C62.795 66.9391 62.795 66.9391 62.795 67.4012H63.2567C66.9505 64.6284 69.2592 62.3176 72.0295 60.4691C72.0295 60.0069 72.0295 60.0069 71.5678 59.5448C72.0295 59.5448 72.0295 59.5448 71.5678 59.5448Z" fill="white"/>
<path d="M114.045 67.8688C114.045 67.8688 114.507 67.8688 114.045 67.8688C114.507 67.8688 114.507 67.8688 114.507 67.8688L116.816 57.2395V56.7773C116.816 56.7773 116.816 56.7773 116.354 56.7773L105.734 60.0123C105.734 60.0123 105.734 60.0123 105.272 60.4745V60.9366C108.043 62.323 110.813 64.6338 114.045 67.8688Z" fill="white"/>
<path d="M94.653 59.5475C93.2679 57.2368 91.4209 56.3125 88.6506 56.3125C86.3419 56.3125 84.0333 57.6989 82.6481 59.5475C81.7246 60.9339 78.0308 67.4039 71.5666 78.4953C70.6432 80.3439 69.7197 82.6546 69.7197 84.5031C69.7197 92.8217 69.7197 100.678 69.7197 106.686C69.7197 125.172 106.196 125.172 106.658 107.148C106.658 101.602 106.658 93.746 107.12 84.9653C107.12 82.6546 106.658 80.806 105.735 78.9575L104.811 77.571L94.653 59.5475ZM99.732 97.9053C98.3469 102.989 97.4234 106.686 95.1148 111.307C95.1148 111.307 95.1148 111.307 94.653 111.307C89.574 111.77 85.8802 111.77 80.8012 111.307H80.3395C78.4926 106.224 77.1074 102.527 76.1839 97.9053V97.4431C79.8777 94.2081 83.1098 91.8974 87.7271 89.1246H88.1888C92.8061 92.3596 96.0382 94.6703 99.732 97.9053Z" fill="white"/>
</svg>
