<svg width="160" height="160" viewBox="0 0 160 160" fill="none" xmlns="http://www.w3.org/2000/svg">
<path d="M160 80C160 124.183 124.183 160 80 160C35.8172 160 -2.7141e-06 124.183 -1.74846e-06 80C-7.8281e-07 35.8172 35.8172 7.8281e-07 80 1.74846e-06C124.183 2.7141e-06 160 35.8172 160 80Z" fill="white"/>
<path fill-rule="evenodd" clip-rule="evenodd" d="M80 136C110.928 136 136 110.928 136 80C136 49.0721 110.928 24 80 24C49.0721 24 24 49.0721 24 80C24 110.928 49.0721 136 80 136ZM80 160C124.183 160 160 124.183 160 80C160 35.8172 124.183 2.7141e-06 80 1.74846e-06C35.8172 7.8281e-07 -7.8281e-07 35.8172 -1.74846e-06 80C-2.7141e-06 124.183 35.8172 160 80 160Z" fill="#FABC00"/>
<path d="M36.8145 14.1875L143.814 121.187L121.187 143.815L14.187 36.8149L36.8145 14.1875Z" fill="#163980"/>
<path fill-rule="evenodd" clip-rule="evenodd" d="M80 136C110.928 136 136 110.928 136 80C136 49.0721 110.928 24 80 24C49.0721 24 24 49.0721 24 80C24 110.928 49.0721 136 80 136ZM80 160C124.183 160 160 124.183 160 80C160 35.8172 124.183 2.7141e-06 80 1.74846e-06C35.8172 7.8281e-07 -7.8281e-07 35.8172 -1.74846e-06 80C-2.7141e-06 124.183 35.8172 160 80 160Z" fill="#FABC00"/>
<path fill-rule="evenodd" clip-rule="evenodd" d="M80 156C121.974 156 156 121.974 156 80C156 38.0264 121.974 4 80 4C38.0264 4 4 38.0264 4 80C4 121.974 38.0264 156 80 156ZM80 160C124.183 160 160 124.183 160 80C160 35.8172 124.183 0 80 0C35.8172 0 0 35.8172 0 80C0 124.183 35.8172 160 80 160Z" fill="#DDDDDD"/>
</svg>
